<svg xmlns:dc="http://purl.org/dc/elements/1.1/" xmlns:cc="http://creativecommons.org/ns#" xmlns:rdf="http://www.w3.org/1999/02/22-rdf-syntax-ns#" xmlns:svg="http://www.w3.org/2000/svg" xmlns="http://www.w3.org/2000/svg" xmlns:xlink="http://www.w3.org/1999/xlink" id="svg35853" viewBox="0 0 1024 768" height="768px" width="1024px" version="1.1">
  <metadata id="metadata35859">
    <rdf:rdf>
      <cc:work rdf:about="">
        <dc:format>image/svg+xml</dc:format>
        <dc:type rdf:resource="http://purl.org/dc/dcmitype/StillImage"></dc:type>
      </cc:work>
    </rdf:rdf>
  </metadata>
  <defs id="defs35857"></defs>
  <linearGradient spreadMethod="pad" y2="30%" x2="-10%" y1="120%" x1="30%" id="3d_gradient2-logo-8a0c9d7c-2224-4f9d-b9cd-2c631479daa7">
    <stop id="stop35834" stop-opacity="1" stop-color="#ffffff" offset="0%"></stop>
    <stop id="stop35836" stop-opacity="1" stop-color="#000000" offset="100%"></stop>
  </linearGradient>
  <linearGradient gradientTransform="rotate(-30)" spreadMethod="pad" y2="30%" x2="-10%" y1="120%" x1="30%" id="3d_gradient3-logo-8a0c9d7c-2224-4f9d-b9cd-2c631479daa7">
    <stop id="stop35839" stop-opacity="1" stop-color="#ffffff" offset="0%"></stop>
    <stop id="stop35841" stop-opacity="1" stop-color="#cccccc" offset="50%"></stop>
    <stop id="stop35843" stop-opacity="1" stop-color="#000000" offset="100%"></stop>
  </linearGradient>
  <g id="logo-group">
    <image xlink:href="" id="container" x="272" y="144" width="480" height="480" transform="translate(0 0)" style="display: none;"></image>
    <g id="logo-center" transform="translate(0 0)">
      <image xlink:href="" id="icon_container" x="0" y="0" style="display: none;"></image>
      <g id="slogan" style="font-style:normal;font-weight:400;font-size:32px;line-height:1;font-family:'Archivo Narrow';font-variant-ligatures:none;text-align:center;text-anchor:middle" transform="translate(0 0)"></g>
      <g id="title" style="font-style:normal;font-weight:700;font-size:72px;line-height:1;font-family:'Meedori Sans';font-variant-ligatures:none;text-align:center;text-anchor:middle" transform="translate(0 0)">
        <path id="path35862" style="font-style:normal;font-weight:700;font-size:72px;line-height:1;font-family:'Meedori Sans';font-variant-ligatures:none;text-align:center;text-anchor:middle" d="m 346.44837,0 h -10.00799 l -11.952,-22.032 H 313.40037 V 0 h -8.928 v -54 h 25.99201 q 4.17599,0.216 7.488,2.016 1.368,0.792 2.73599,1.944 1.368,1.152 2.376,2.808 1.08001,1.656 1.728,3.96 0.64801,2.232 0.64801,5.256 0,4.896 -1.584,8.064 -1.58401,3.096 -3.60001,4.896 -1.944,1.728 -3.74399,2.376 -1.72801,0.648 -2.08801,0.648 z m -33.048,-30.96 h 17.06401 q 1.65599,-0.072 2.952,-0.864 1.15199,-0.648 2.08799,-2.088 0.93601,-1.44 0.93601,-4.104 0,-2.592 -0.93601,-4.032 -0.936,-1.44 -2.08799,-2.088 -1.29601,-0.792 -2.952,-0.864 h -17.06401 z" stroke-width="0" stroke-linejoin="miter" stroke-miterlimit="2" fill="#eadca3" stroke="#eadca3" transform="translate(0 313.72299999999996) translate(248.85405624999999 36.572) scale(1.25) translate(-304.47237 54)"></path>
        <path id="path35864" style="font-style:normal;font-weight:700;font-size:72px;line-height:1;font-family:'Meedori Sans';font-variant-ligatures:none;text-align:center;text-anchor:middle" d="m 394.685,-45 h -27.072 v 13.464 h 23.04 v 9 h -23.04 V -9 h 27.072 v 9 h -36.072 v -54 h 36.072 v 9 z" stroke-width="0" stroke-linejoin="miter" stroke-miterlimit="2" fill="#e0cf96" stroke="#e0cf96" transform="translate(0 313.72299999999996) translate(316.52984375 36.572) scale(1.25) translate(-358.613 54)"></path>
        <path id="path35866" style="font-style:normal;font-weight:700;font-size:72px;line-height:1;font-family:'Meedori Sans';font-variant-ligatures:none;text-align:center;text-anchor:middle" d="m 435.25362,-32.76 27.072,-21.312 V 0 h -9 v -35.496 l -18.072,14.256 -18,-14.256 V 0 h -9 v -54.072 z" stroke-width="0" stroke-linejoin="miter" stroke-miterlimit="2" fill="#d5c288" stroke="#d5c288" transform="translate(0 313.72299999999996) translate(378.58061875 36.482) scale(1.25) translate(-408.25362 54.072)"></path>
        <path id="path35868" style="font-style:normal;font-weight:700;font-size:72px;line-height:1;font-family:'Meedori Sans';font-variant-ligatures:none;text-align:center;text-anchor:middle" d="m 501.5645,-54 q 5.4,0 10.224,2.088 4.896,2.088 8.64,5.76 3.744,3.6 5.904,8.568 2.232,4.896 2.232,10.584 0,5.4 -2.088,10.296 -2.088,4.824 -5.76,8.568 -3.6,3.744 -8.568,5.976 -4.896,2.16 -10.584,2.16 -5.4,0 -10.296,-2.088 -4.896,-2.088 -8.64,-5.76 -3.672,-3.672 -5.904,-8.568 -2.16,-4.968 -2.16,-10.584 0,-5.472 2.088,-10.296 2.088,-4.896 5.688,-8.568 3.672,-3.672 8.568,-5.832 4.968,-2.16 10.656,-2.304 z m 0,45 q 3.528,0 6.768,-1.368 3.312,-1.44 5.76,-3.888 2.52,-2.448 3.96,-5.688 1.512,-3.312 1.512,-7.056 0,-3.6 -1.44,-6.84 -1.368,-3.312 -3.816,-5.76 -2.448,-2.52 -5.76,-3.96 -3.24,-1.512 -6.984,-1.512 -3.6,0 -6.912,1.44 -3.24,1.368 -5.76,3.816 -2.448,2.448 -3.96,5.76 -1.44,3.312 -1.44,7.056 0,3.672 1.368,6.912 1.44,3.168 3.888,5.616 2.448,2.448 5.688,3.888 3.312,1.44 7.128,1.584 z" stroke-width="0" stroke-linejoin="miter" stroke-miterlimit="2" fill="#cbb57b" stroke="#cbb57b" transform="translate(0 313.72299999999996) translate(461.46921875 36.572) scale(1.25) translate(-474.5645 54)"></path>
        <path id="path35870" style="font-style:normal;font-weight:700;font-size:72px;line-height:1;font-family:'Meedori Sans';font-variant-ligatures:none;text-align:center;text-anchor:middle" d="m 581.759,-45 h -18 V 0 h -9 v -45 h -18 v -9 h 45 z" stroke-width="0" stroke-linejoin="miter" stroke-miterlimit="2" fill="#c0a76e" stroke="#c0a76e" transform="translate(0 313.72299999999996) translate(539.2123437500001 36.572) scale(1.25) translate(-536.759 54)"></path>
        <path id="path35872" style="font-style:normal;font-weight:700;font-size:72px;line-height:1;font-family:'Meedori Sans';font-variant-ligatures:none;text-align:center;text-anchor:middle" d="m 628.685,-45 h -27.072 v 13.464 h 23.04 v 9 h -23.04 V -9 h 27.072 v 9 h -36.072 v -54 h 36.072 v 9 z" stroke-width="0" stroke-linejoin="miter" stroke-miterlimit="2" fill="#b69a61" stroke="#b69a61" transform="translate(0 313.72299999999996) translate(609.02984375 36.572) scale(1.25) translate(-592.613 54)"></path>
        <path id="path35874" style="font-style:normal;font-weight:700;font-size:72px;line-height:1;font-family:'Meedori Sans';font-variant-ligatures:none;text-align:center;text-anchor:middle" d="m 673.71762,-9 v 9 h -36.072 v -54.072 h 8.928 l 0.072,45.072 z" stroke-width="0" stroke-linejoin="miter" stroke-miterlimit="2" fill="#ab8d53" stroke="#ab8d53" transform="translate(0 313.72299999999996) translate(665.32061875 36.482) scale(1.25) translate(-637.64562 54.072)"></path>
        <path id="path35876" style="font-style:normal;font-weight:700;font-size:72px;line-height:1;font-family:'Meedori Sans';font-variant-ligatures:none;text-align:center;text-anchor:middle" d="M 702.46587,-24.984 V 0 h -9 V -24.984 L 671.43387,-54 h 11.01601 l 16.056,20.016 L 713.48187,-54 h 12.02401 z" stroke-width="0" stroke-linejoin="miter" stroke-miterlimit="2" fill="#a18046" stroke="#a18046" transform="translate(0 313.72299999999996) translate(707.55593125 36.572) scale(1.25) translate(-671.43387 54)"></path>
      </g>
      <image xlink:href="" id="icon" x="0" y="0" style="display: none;"></image>
    </g>
  </g>
</svg>